<svg xmlns="http://www.w3.org/2000/svg" width="189" height="99.3" viewBox="0 0 189 99.3">
  <g id="Group_2" data-name="Group 2" transform="translate(-1218 -530.405)">
    <text id="my_olio" data-name="my  olio" transform="translate(1218 614)" fill="#009549" font-size="45" font-family="Herculanum"><tspan x="0" y="0" xml:space="preserve">my  olio</tspan></text>
    <g id="Group_1" data-name="Group 1" transform="translate(0 41.405)">
      <g id="leaf" transform="translate(1313.836 489)">
        <path id="Path_1" data-name="Path 1" d="M95.706,7.256C104.4,6.3,107.221.8,107.23.8a.559.559,0,0,1,1.036.111c2.889,9.8,1.312,16.553-2,20.56a12.475,12.475,0,0,1-4.791,3.574,11.937,11.937,0,0,1-5.44.922,9.569,9.569,0,0,1-8.322-5.56,9.263,9.263,0,0,1-.741-2.744,9.435,9.435,0,0,1,1.063-5.5,9.128,9.128,0,0,1,4.386-4.032,11.044,11.044,0,0,1,3.288-.876Z" transform="translate(-81.435 -0.463)" fill="#45b549"/>
        <path id="Path_2" data-name="Path 2" d="M41.377.546a.559.559,0,1,1,1.112.1C42.49.669,42,7.1,35.729,13.6l-.058.061a32.6,32.6,0,0,1-4.828,4.075l3.768.7a.559.559,0,0,1-.187,1.1l-4.917-.922c-4.484,2.84-12.084,5.461-12.748,11.648a.559.559,0,0,1-1.113-.111c.793-7.416,8.329-9.324,13.412-12.567l.071-.046a32.3,32.3,0,0,0,5.6-4.49l-.446-4.41a.559.559,0,1,1,1.109-.149c0,.013,0,.025,0,.038l.338,3.424c5.228-5.87,5.64-11.38,5.643-11.4Z" transform="translate(-15.643 -0.001)" fill="#009549"/>
      </g>
      <g id="leaf-2" data-name="leaf" transform="translate(1313.836 518.75)">
        <path id="Path_1-2" data-name="Path 1" d="M95.706,19.24c8.691.956,11.516,6.454,11.525,6.454a.559.559,0,0,0,1.036-.111c2.889-9.8,1.312-16.553-2-20.56a12.475,12.475,0,0,0-4.791-3.574,11.937,11.937,0,0,0-5.44-.922,9.569,9.569,0,0,0-8.322,5.56,9.263,9.263,0,0,0-.741,2.744,9.435,9.435,0,0,0,1.063,5.5,9.128,9.128,0,0,0,4.386,4.032,11.044,11.044,0,0,0,3.288.876Z" transform="translate(-81.435 5.023)" fill="#45b549"/>
        <path id="Path_2-2" data-name="Path 2" d="M41.377,30.2a.559.559,0,1,0,1.112-.1c0-.028-.489-6.454-6.761-12.957l-.058-.061a32.6,32.6,0,0,0-4.828-4.075l3.768-.7a.559.559,0,0,0-.187-1.1l-4.917.922C25.021,9.294,17.421,6.672,16.757.486A.559.559,0,0,0,15.645.6c.793,7.416,8.329,9.324,13.412,12.567l.071.046a32.3,32.3,0,0,1,5.6,4.49l-.446,4.41a.559.559,0,1,0,1.109.149c0-.013,0-.025,0-.038l.338-3.424c5.228,5.87,5.64,11.38,5.643,11.4Z" transform="translate(-15.643 -0.001)" fill="#009549"/>
      </g>
      <path id="Path_3" data-name="Path 3" d="M1314.045,586.344l-8.153,1.715-3.8,3-4.241,7.01v57.409l1.756-56.435,3.265-6.706,3.019-2.849,8.153-2.244Z" transform="translate(0 -67.177)" fill="#009549"/>
      <path id="Path_4" data-name="Path 4" d="M1297.852,585.475l16.092,1.536-16.092,1.8Z" transform="translate(0 -40.547)" fill="#009549"/>
    </g>
  </g>
</svg>
