<svg xmlns="http://www.w3.org/2000/svg" width="1532.369" height="1711.02" viewBox="0 0 1532.369 1711.02">
  <g id="Group_4" data-name="Group 4" transform="translate(211 626.019)">
    <g id="tree" transform="translate(-237.729 -626.019)" opacity="0.467">
      <path id="Path_5" data-name="Path 5" d="M1559.1,803.817c0-119.631-72.752-222.268-176.422-266.087A256.334,256.334,0,0,0,1411.39,419.6c0-142.232-115.3-257.531-257.531-257.531a256.472,256.472,0,0,0-112.951,26.06C1010.6,79.626,911.087,0,792.914,0S575.227,79.626,544.92,188.132a256.425,256.425,0,0,0-112.95-26.06c-142.232,0-257.531,115.3-257.531,257.531A256.293,256.293,0,0,0,203.151,537.73C99.481,581.552,26.729,684.186,26.729,803.817c0,155.038,122.231,281.369,275.564,288.283,21.378,77.43,103.931,135.154,202.588,135.154,55.915,0,106.638-18.571,144.016-48.727,37.382,30.157,88.1,48.727,144.016,48.727s106.638-18.571,144.016-48.727c37.382,30.157,88.1,48.727,144.016,48.727,98.657,0,181.211-57.724,202.588-135.157C1436.868,1085.182,1559.1,958.855,1559.1,803.817Z" transform="translate(0)" fill="#45b549"/>
      <g id="Group_3" data-name="Group 3" transform="translate(741.363)">
        <path id="Path_6" data-name="Path 6" d="M276.676.511c-3.171.19-6.329.418-9.467.725-.962.094-1.918.2-2.874.3q-5.058.546-10.059,1.28c-.625.09-1.25.18-1.871.277-3.963.618-7.907,1.307-11.81,2.1-.007,0-.013,0-.02,0,67.605,13.748,130.9,60.835,171,120.186,28.4,42.03,76.919,66.258,127.528,62.816l1.009-.07C509.815,79.626,410.3,0,292.125,0c-4.144,0-8.258.12-12.351.314C278.738.364,277.712.451,276.676.511Z" transform="translate(-240.574)" fill="#009549"/>
        <path id="Path_7" data-name="Path 7" d="M680.046,424.156a256.293,256.293,0,0,0,28.713-118.127C708.759,163.8,593.459,48.5,451.227,48.5A258.151,258.151,0,0,0,399.7,53.671C517.215,77.555,605.663,181.459,605.663,306.029A256.294,256.294,0,0,1,576.95,424.156c103.67,43.821,176.422,146.456,176.422,266.087,0,155.037-122.231,281.365-275.561,288.28-17.521,63.465-76.15,113.662-151.047,129.716a245.555,245.555,0,0,0,51.554,5.437c98.658,0,181.211-57.723,202.589-135.157,153.333-6.914,275.561-133.242,275.561-288.28C856.468,570.612,783.723,467.975,680.046,424.156Z" transform="translate(-38.732 113.574)" fill="#009549"/>
      </g>
      <path id="Path_8" data-name="Path 8" d="M309.558,345.012c-23.226,39.393-119.477,83.442-155.171,85.945,3.927.842,7.907,1.577,11.92,2.232.321.053.642.11.966.16q6.1.967,12.325,1.644c.107.01.214.017.321.03,3.733.394,7.506.678,11.3.9.922.053,1.848.107,2.777.154,3.953.191,7.927.318,11.937.318h0c51,0,97.635-15.483,133.813-41.078l6.343-4.612-32.3-53Z" transform="translate(298.953 790.859)" fill="#009549"/>
      <path id="Path_9" data-name="Path 9" d="M574.475,613.251,684.809,439.145a32.993,32.993,0,0,0-6.216-42.555h0a33,33,0,0,0-45.128,1.708l-81.257,82.266c-10.777,10.911-29.241,1.838-27.189-13.357L548.913,290.17a32.994,32.994,0,0,0-30.474-37.332l-22.387-1.514a32.995,32.995,0,0,0-34.718,27.2L418.682,520.849a15.97,15.97,0,0,1-28.118,7.309L256.984,363.877a32.989,32.989,0,0,0-38.381-9.6L195.214,364.1a32.995,32.995,0,0,0-15.509,47.39L316.974,640.3a171.621,171.621,0,0,1,23.105,110.327c-17.789,137.206-39.888,266.6-130.321,372.013h471.88C584.831,1009.8,560.951,869.472,548.138,721.5A174.2,174.2,0,0,1,574.475,613.251Z" transform="translate(347.21 588.381)" fill="#894f12"/>
      <path id="Path_10" data-name="Path 10" d="M492.831,437.914a32.989,32.989,0,0,0-6.216-42.555h0a33,33,0,0,0-45.128,1.708L405.2,433.8h0L360.23,479.329c-10.777,10.911-29.241,1.838-27.189-13.357l23.894-177.037a32.964,32.964,0,0,0-29.054-37.161L260.694,669.386q-1.694,8.091-2.627,16.321h0a174.985,174.985,0,0,0-.451,34.558c12.819,147.973,36.7,288.3,133.506,401.14h98.544c-96.806-112.84-120.687-253.167-133.5-401.137A174.155,174.155,0,0,1,382.493,612.02Z" transform="translate(539.188 589.612)" fill="#9a4d01"/>
      <path id="Path_11" data-name="Path 11" d="M642.083,60.5A178.769,178.769,0,0,0,479.44,165.066,178.747,178.747,0,0,0,221.6,400.538a178.8,178.8,0,0,0,27.39,355.487c98.741,0,571.877-418,571.877-516.737A178.785,178.785,0,0,0,642.083,60.5Z" transform="translate(101.816 141.681)" fill="#45b549"/>
    </g>
    <g id="dollar" transform="translate(756 27)" opacity="0.47">
      <path id="Path_12" data-name="Path 12" d="M82.054,0C37.132,0,0,36.493,0,81.415s37.132,82.054,82.054,82.054,81.415-37.132,81.415-82.054A81.47,81.47,0,0,0,82.054,0Z" fill="#fedb41"/>
      <path id="Path_13" data-name="Path 13" d="M338.415,81.415c0,44.922-36.494,82.054-81.415,82.054V0A81.47,81.47,0,0,1,338.415,81.415Z" transform="translate(-174.946)" fill="#fc3"/>
      <path id="Path_14" data-name="Path 14" d="M122.9,60C88.606,60,60,87.968,60,122.259s28.606,62.9,62.9,62.9,62.259-28.607,62.259-62.9A62.379,62.379,0,0,0,122.9,60Z" transform="translate(-40.844 -40.844)" fill="#fea832"/>
      <path id="Path_15" data-name="Path 15" d="M319.259,122.259c0,34.29-27.968,62.9-62.259,62.9V60A62.379,62.379,0,0,1,319.259,122.259Z" transform="translate(-174.946 -40.844)" fill="#fe9923"/>
      <path id="Path_16" data-name="Path 16" d="M214.162,158.313h-4.789V139.156h4.789a4.742,4.742,0,0,1,4.789,4.789c0,6.321,9.578,6.321,9.578,0a14.347,14.347,0,0,0-14.367-14.367h-4.789v-4.789a4.789,4.789,0,1,0-9.578,0v4.789h-5.428A14.347,14.347,0,0,0,180,143.946v9.578a14.348,14.348,0,0,0,14.367,14.367H199.8v19.8h-5.428a4.742,4.742,0,0,1-4.789-4.789c0-6.321-9.578-6.321-9.578,0a14.347,14.347,0,0,0,14.367,14.367H199.8v4.789a4.789,4.789,0,1,0,9.578,0v-4.789h4.789A14.347,14.347,0,0,0,228.53,182.9V172.68A14.347,14.347,0,0,0,214.162,158.313Zm-14.367,0h-5.428a4.742,4.742,0,0,1-4.789-4.789v-9.578a4.742,4.742,0,0,1,4.789-4.789H199.8ZM218.951,182.9a4.742,4.742,0,0,1-4.789,4.789h-4.789v-19.8h4.789a4.742,4.742,0,0,1,4.789,4.789Z" transform="translate(-122.531 -81.687)" fill="#fedb41"/>
      <path id="Path_17" data-name="Path 17" d="M266.578,158.313h-4.789V139.156h4.789a4.742,4.742,0,0,1,4.789,4.789c0,6.321,9.578,6.321,9.578,0a14.347,14.347,0,0,0-14.367-14.367h-4.789v-4.789A4.619,4.619,0,0,0,257,120v86.843a4.619,4.619,0,0,0,4.789-4.789v-4.789h4.789A14.347,14.347,0,0,0,280.946,182.9V172.68A14.348,14.348,0,0,0,266.578,158.313Zm4.789,24.584a4.742,4.742,0,0,1-4.789,4.789h-4.789v-19.8h4.789a4.742,4.742,0,0,1,4.789,4.789Z" transform="translate(-174.946 -81.687)" fill="#fc3"/>
    </g>
    <g id="dollar-2" data-name="dollar" transform="translate(66 247)" opacity="0.47">
      <path id="Path_12-2" data-name="Path 12" d="M82.054,0C37.132,0,0,36.493,0,81.415s37.132,82.054,82.054,82.054,81.415-37.132,81.415-82.054A81.47,81.47,0,0,0,82.054,0Z" fill="#fedb41"/>
      <path id="Path_13-2" data-name="Path 13" d="M338.415,81.415c0,44.922-36.494,82.054-81.415,82.054V0A81.47,81.47,0,0,1,338.415,81.415Z" transform="translate(-174.946)" fill="#fc3"/>
      <path id="Path_14-2" data-name="Path 14" d="M122.9,60C88.606,60,60,87.968,60,122.259s28.606,62.9,62.9,62.9,62.259-28.607,62.259-62.9A62.379,62.379,0,0,0,122.9,60Z" transform="translate(-40.844 -40.844)" fill="#fea832"/>
      <path id="Path_15-2" data-name="Path 15" d="M319.259,122.259c0,34.29-27.968,62.9-62.259,62.9V60A62.379,62.379,0,0,1,319.259,122.259Z" transform="translate(-174.946 -40.844)" fill="#fe9923"/>
      <path id="Path_16-2" data-name="Path 16" d="M214.162,158.313h-4.789V139.156h4.789a4.742,4.742,0,0,1,4.789,4.789c0,6.321,9.578,6.321,9.578,0a14.347,14.347,0,0,0-14.367-14.367h-4.789v-4.789a4.789,4.789,0,1,0-9.578,0v4.789h-5.428A14.347,14.347,0,0,0,180,143.946v9.578a14.348,14.348,0,0,0,14.367,14.367H199.8v19.8h-5.428a4.742,4.742,0,0,1-4.789-4.789c0-6.321-9.578-6.321-9.578,0a14.347,14.347,0,0,0,14.367,14.367H199.8v4.789a4.789,4.789,0,1,0,9.578,0v-4.789h4.789A14.347,14.347,0,0,0,228.53,182.9V172.68A14.347,14.347,0,0,0,214.162,158.313Zm-14.367,0h-5.428a4.742,4.742,0,0,1-4.789-4.789v-9.578a4.742,4.742,0,0,1,4.789-4.789H199.8ZM218.951,182.9a4.742,4.742,0,0,1-4.789,4.789h-4.789v-19.8h4.789a4.742,4.742,0,0,1,4.789,4.789Z" transform="translate(-122.531 -81.687)" fill="#fedb41"/>
      <path id="Path_17-2" data-name="Path 17" d="M266.578,158.313h-4.789V139.156h4.789a4.742,4.742,0,0,1,4.789,4.789c0,6.321,9.578,6.321,9.578,0a14.347,14.347,0,0,0-14.367-14.367h-4.789v-4.789A4.619,4.619,0,0,0,257,120v86.843a4.619,4.619,0,0,0,4.789-4.789v-4.789h4.789A14.347,14.347,0,0,0,280.946,182.9V172.68A14.348,14.348,0,0,0,266.578,158.313Zm4.789,24.584a4.742,4.742,0,0,1-4.789,4.789h-4.789v-19.8h4.789a4.742,4.742,0,0,1,4.789,4.789Z" transform="translate(-174.946 -81.687)" fill="#fc3"/>
    </g>
    <g id="dollar-3" data-name="dollar" transform="translate(376 47)" opacity="0.47">
      <path id="Path_12-3" data-name="Path 12" d="M82.054,0C37.132,0,0,36.493,0,81.415s37.132,82.054,82.054,82.054,81.415-37.132,81.415-82.054A81.47,81.47,0,0,0,82.054,0Z" fill="#fedb41"/>
      <path id="Path_13-3" data-name="Path 13" d="M338.415,81.415c0,44.922-36.494,82.054-81.415,82.054V0A81.47,81.47,0,0,1,338.415,81.415Z" transform="translate(-174.946)" fill="#fc3"/>
      <path id="Path_14-3" data-name="Path 14" d="M122.9,60C88.606,60,60,87.968,60,122.259s28.606,62.9,62.9,62.9,62.259-28.607,62.259-62.9A62.379,62.379,0,0,0,122.9,60Z" transform="translate(-40.844 -40.844)" fill="#fea832"/>
      <path id="Path_15-3" data-name="Path 15" d="M319.259,122.259c0,34.29-27.968,62.9-62.259,62.9V60A62.379,62.379,0,0,1,319.259,122.259Z" transform="translate(-174.946 -40.844)" fill="#fe9923"/>
      <path id="Path_16-3" data-name="Path 16" d="M214.162,158.313h-4.789V139.156h4.789a4.742,4.742,0,0,1,4.789,4.789c0,6.321,9.578,6.321,9.578,0a14.347,14.347,0,0,0-14.367-14.367h-4.789v-4.789a4.789,4.789,0,1,0-9.578,0v4.789h-5.428A14.347,14.347,0,0,0,180,143.946v9.578a14.348,14.348,0,0,0,14.367,14.367H199.8v19.8h-5.428a4.742,4.742,0,0,1-4.789-4.789c0-6.321-9.578-6.321-9.578,0a14.347,14.347,0,0,0,14.367,14.367H199.8v4.789a4.789,4.789,0,1,0,9.578,0v-4.789h4.789A14.347,14.347,0,0,0,228.53,182.9V172.68A14.347,14.347,0,0,0,214.162,158.313Zm-14.367,0h-5.428a4.742,4.742,0,0,1-4.789-4.789v-9.578a4.742,4.742,0,0,1,4.789-4.789H199.8ZM218.951,182.9a4.742,4.742,0,0,1-4.789,4.789h-4.789v-19.8h4.789a4.742,4.742,0,0,1,4.789,4.789Z" transform="translate(-122.531 -81.687)" fill="#fedb41"/>
      <path id="Path_17-3" data-name="Path 17" d="M266.578,158.313h-4.789V139.156h4.789a4.742,4.742,0,0,1,4.789,4.789c0,6.321,9.578,6.321,9.578,0a14.347,14.347,0,0,0-14.367-14.367h-4.789v-4.789A4.619,4.619,0,0,0,257,120v86.843a4.619,4.619,0,0,0,4.789-4.789v-4.789h4.789A14.347,14.347,0,0,0,280.946,182.9V172.68A14.348,14.348,0,0,0,266.578,158.313Zm4.789,24.584a4.742,4.742,0,0,1-4.789,4.789h-4.789v-19.8h4.789a4.742,4.742,0,0,1,4.789,4.789Z" transform="translate(-174.946 -81.687)" fill="#fc3"/>
    </g>
    <g id="dollar-4" data-name="dollar" transform="translate(845 294)" opacity="0.47">
      <path id="Path_12-4" data-name="Path 12" d="M82.054,0C37.132,0,0,36.493,0,81.415s37.132,82.054,82.054,82.054,81.415-37.132,81.415-82.054A81.47,81.47,0,0,0,82.054,0Z" fill="#fedb41"/>
      <path id="Path_13-4" data-name="Path 13" d="M338.415,81.415c0,44.922-36.494,82.054-81.415,82.054V0A81.47,81.47,0,0,1,338.415,81.415Z" transform="translate(-174.946)" fill="#fc3"/>
      <path id="Path_14-4" data-name="Path 14" d="M122.9,60C88.606,60,60,87.968,60,122.259s28.606,62.9,62.9,62.9,62.259-28.607,62.259-62.9A62.379,62.379,0,0,0,122.9,60Z" transform="translate(-40.844 -40.844)" fill="#fea832"/>
      <path id="Path_15-4" data-name="Path 15" d="M319.259,122.259c0,34.29-27.968,62.9-62.259,62.9V60A62.379,62.379,0,0,1,319.259,122.259Z" transform="translate(-174.946 -40.844)" fill="#fe9923"/>
      <path id="Path_16-4" data-name="Path 16" d="M214.162,158.313h-4.789V139.156h4.789a4.742,4.742,0,0,1,4.789,4.789c0,6.321,9.578,6.321,9.578,0a14.347,14.347,0,0,0-14.367-14.367h-4.789v-4.789a4.789,4.789,0,1,0-9.578,0v4.789h-5.428A14.347,14.347,0,0,0,180,143.946v9.578a14.348,14.348,0,0,0,14.367,14.367H199.8v19.8h-5.428a4.742,4.742,0,0,1-4.789-4.789c0-6.321-9.578-6.321-9.578,0a14.347,14.347,0,0,0,14.367,14.367H199.8v4.789a4.789,4.789,0,1,0,9.578,0v-4.789h4.789A14.347,14.347,0,0,0,228.53,182.9V172.68A14.347,14.347,0,0,0,214.162,158.313Zm-14.367,0h-5.428a4.742,4.742,0,0,1-4.789-4.789v-9.578a4.742,4.742,0,0,1,4.789-4.789H199.8ZM218.951,182.9a4.742,4.742,0,0,1-4.789,4.789h-4.789v-19.8h4.789a4.742,4.742,0,0,1,4.789,4.789Z" transform="translate(-122.531 -81.687)" fill="#fedb41"/>
      <path id="Path_17-4" data-name="Path 17" d="M266.578,158.313h-4.789V139.156h4.789a4.742,4.742,0,0,1,4.789,4.789c0,6.321,9.578,6.321,9.578,0a14.347,14.347,0,0,0-14.367-14.367h-4.789v-4.789A4.619,4.619,0,0,0,257,120v86.843a4.619,4.619,0,0,0,4.789-4.789v-4.789h4.789A14.347,14.347,0,0,0,280.946,182.9V172.68A14.348,14.348,0,0,0,266.578,158.313Zm4.789,24.584a4.742,4.742,0,0,1-4.789,4.789h-4.789v-19.8h4.789a4.742,4.742,0,0,1,4.789,4.789Z" transform="translate(-174.946 -81.687)" fill="#fc3"/>
    </g>
    <g id="dollar-5" data-name="dollar" transform="translate(132 -134)" opacity="0.47">
      <path id="Path_12-5" data-name="Path 12" d="M82.054,0C37.132,0,0,36.493,0,81.415s37.132,82.054,82.054,82.054,81.415-37.132,81.415-82.054A81.47,81.47,0,0,0,82.054,0Z" fill="#fedb41"/>
      <path id="Path_13-5" data-name="Path 13" d="M338.415,81.415c0,44.922-36.494,82.054-81.415,82.054V0A81.47,81.47,0,0,1,338.415,81.415Z" transform="translate(-174.946)" fill="#fc3"/>
      <path id="Path_14-5" data-name="Path 14" d="M122.9,60C88.606,60,60,87.968,60,122.259s28.606,62.9,62.9,62.9,62.259-28.607,62.259-62.9A62.379,62.379,0,0,0,122.9,60Z" transform="translate(-40.844 -40.844)" fill="#fea832"/>
      <path id="Path_15-5" data-name="Path 15" d="M319.259,122.259c0,34.29-27.968,62.9-62.259,62.9V60A62.379,62.379,0,0,1,319.259,122.259Z" transform="translate(-174.946 -40.844)" fill="#fe9923"/>
      <path id="Path_16-5" data-name="Path 16" d="M214.162,158.313h-4.789V139.156h4.789a4.742,4.742,0,0,1,4.789,4.789c0,6.321,9.578,6.321,9.578,0a14.347,14.347,0,0,0-14.367-14.367h-4.789v-4.789a4.789,4.789,0,1,0-9.578,0v4.789h-5.428A14.347,14.347,0,0,0,180,143.946v9.578a14.348,14.348,0,0,0,14.367,14.367H199.8v19.8h-5.428a4.742,4.742,0,0,1-4.789-4.789c0-6.321-9.578-6.321-9.578,0a14.347,14.347,0,0,0,14.367,14.367H199.8v4.789a4.789,4.789,0,1,0,9.578,0v-4.789h4.789A14.347,14.347,0,0,0,228.53,182.9V172.68A14.347,14.347,0,0,0,214.162,158.313Zm-14.367,0h-5.428a4.742,4.742,0,0,1-4.789-4.789v-9.578a4.742,4.742,0,0,1,4.789-4.789H199.8ZM218.951,182.9a4.742,4.742,0,0,1-4.789,4.789h-4.789v-19.8h4.789a4.742,4.742,0,0,1,4.789,4.789Z" transform="translate(-122.531 -81.687)" fill="#fedb41"/>
      <path id="Path_17-5" data-name="Path 17" d="M266.578,158.313h-4.789V139.156h4.789a4.742,4.742,0,0,1,4.789,4.789c0,6.321,9.578,6.321,9.578,0a14.347,14.347,0,0,0-14.367-14.367h-4.789v-4.789A4.619,4.619,0,0,0,257,120v86.843a4.619,4.619,0,0,0,4.789-4.789v-4.789h4.789A14.347,14.347,0,0,0,280.946,182.9V172.68A14.348,14.348,0,0,0,266.578,158.313Zm4.789,24.584a4.742,4.742,0,0,1-4.789,4.789h-4.789v-19.8h4.789a4.742,4.742,0,0,1,4.789,4.789Z" transform="translate(-174.946 -81.687)" fill="#fc3"/>
    </g>
    <g id="dollar-6" data-name="dollar" transform="translate(792 -314)" opacity="0.47">
      <path id="Path_12-6" data-name="Path 12" d="M82.054,0C37.132,0,0,36.493,0,81.415s37.132,82.054,82.054,82.054,81.415-37.132,81.415-82.054A81.47,81.47,0,0,0,82.054,0Z" fill="#fedb41"/>
      <path id="Path_13-6" data-name="Path 13" d="M338.415,81.415c0,44.922-36.494,82.054-81.415,82.054V0A81.47,81.47,0,0,1,338.415,81.415Z" transform="translate(-174.946)" fill="#fc3"/>
      <path id="Path_14-6" data-name="Path 14" d="M122.9,60C88.606,60,60,87.968,60,122.259s28.606,62.9,62.9,62.9,62.259-28.607,62.259-62.9A62.379,62.379,0,0,0,122.9,60Z" transform="translate(-40.844 -40.844)" fill="#fea832"/>
      <path id="Path_15-6" data-name="Path 15" d="M319.259,122.259c0,34.29-27.968,62.9-62.259,62.9V60A62.379,62.379,0,0,1,319.259,122.259Z" transform="translate(-174.946 -40.844)" fill="#fe9923"/>
      <path id="Path_16-6" data-name="Path 16" d="M214.162,158.313h-4.789V139.156h4.789a4.742,4.742,0,0,1,4.789,4.789c0,6.321,9.578,6.321,9.578,0a14.347,14.347,0,0,0-14.367-14.367h-4.789v-4.789a4.789,4.789,0,1,0-9.578,0v4.789h-5.428A14.347,14.347,0,0,0,180,143.946v9.578a14.348,14.348,0,0,0,14.367,14.367H199.8v19.8h-5.428a4.742,4.742,0,0,1-4.789-4.789c0-6.321-9.578-6.321-9.578,0a14.347,14.347,0,0,0,14.367,14.367H199.8v4.789a4.789,4.789,0,1,0,9.578,0v-4.789h4.789A14.347,14.347,0,0,0,228.53,182.9V172.68A14.347,14.347,0,0,0,214.162,158.313Zm-14.367,0h-5.428a4.742,4.742,0,0,1-4.789-4.789v-9.578a4.742,4.742,0,0,1,4.789-4.789H199.8ZM218.951,182.9a4.742,4.742,0,0,1-4.789,4.789h-4.789v-19.8h4.789a4.742,4.742,0,0,1,4.789,4.789Z" transform="translate(-122.531 -81.687)" fill="#fedb41"/>
      <path id="Path_17-6" data-name="Path 17" d="M266.578,158.313h-4.789V139.156h4.789a4.742,4.742,0,0,1,4.789,4.789c0,6.321,9.578,6.321,9.578,0a14.347,14.347,0,0,0-14.367-14.367h-4.789v-4.789A4.619,4.619,0,0,0,257,120v86.843a4.619,4.619,0,0,0,4.789-4.789v-4.789h4.789A14.347,14.347,0,0,0,280.946,182.9V172.68A14.348,14.348,0,0,0,266.578,158.313Zm4.789,24.584a4.742,4.742,0,0,1-4.789,4.789h-4.789v-19.8h4.789a4.742,4.742,0,0,1,4.789,4.789Z" transform="translate(-174.946 -81.687)" fill="#fc3"/>
    </g>
    <g id="dollar-7" data-name="dollar" transform="translate(372 -404)" opacity="0.47">
      <path id="Path_12-7" data-name="Path 12" d="M82.054,0C37.132,0,0,36.493,0,81.415s37.132,82.054,82.054,82.054,81.415-37.132,81.415-82.054A81.47,81.47,0,0,0,82.054,0Z" fill="#fedb41"/>
      <path id="Path_13-7" data-name="Path 13" d="M338.415,81.415c0,44.922-36.494,82.054-81.415,82.054V0A81.47,81.47,0,0,1,338.415,81.415Z" transform="translate(-174.946)" fill="#fc3"/>
      <path id="Path_14-7" data-name="Path 14" d="M122.9,60C88.606,60,60,87.968,60,122.259s28.606,62.9,62.9,62.9,62.259-28.607,62.259-62.9A62.379,62.379,0,0,0,122.9,60Z" transform="translate(-40.844 -40.844)" fill="#fea832"/>
      <path id="Path_15-7" data-name="Path 15" d="M319.259,122.259c0,34.29-27.968,62.9-62.259,62.9V60A62.379,62.379,0,0,1,319.259,122.259Z" transform="translate(-174.946 -40.844)" fill="#fe9923"/>
      <path id="Path_16-7" data-name="Path 16" d="M214.162,158.313h-4.789V139.156h4.789a4.742,4.742,0,0,1,4.789,4.789c0,6.321,9.578,6.321,9.578,0a14.347,14.347,0,0,0-14.367-14.367h-4.789v-4.789a4.789,4.789,0,1,0-9.578,0v4.789h-5.428A14.347,14.347,0,0,0,180,143.946v9.578a14.348,14.348,0,0,0,14.367,14.367H199.8v19.8h-5.428a4.742,4.742,0,0,1-4.789-4.789c0-6.321-9.578-6.321-9.578,0a14.347,14.347,0,0,0,14.367,14.367H199.8v4.789a4.789,4.789,0,1,0,9.578,0v-4.789h4.789A14.347,14.347,0,0,0,228.53,182.9V172.68A14.347,14.347,0,0,0,214.162,158.313Zm-14.367,0h-5.428a4.742,4.742,0,0,1-4.789-4.789v-9.578a4.742,4.742,0,0,1,4.789-4.789H199.8ZM218.951,182.9a4.742,4.742,0,0,1-4.789,4.789h-4.789v-19.8h4.789a4.742,4.742,0,0,1,4.789,4.789Z" transform="translate(-122.531 -81.687)" fill="#fedb41"/>
      <path id="Path_17-7" data-name="Path 17" d="M266.578,158.313h-4.789V139.156h4.789a4.742,4.742,0,0,1,4.789,4.789c0,6.321,9.578,6.321,9.578,0a14.347,14.347,0,0,0-14.367-14.367h-4.789v-4.789A4.619,4.619,0,0,0,257,120v86.843a4.619,4.619,0,0,0,4.789-4.789v-4.789h4.789A14.347,14.347,0,0,0,280.946,182.9V172.68A14.348,14.348,0,0,0,266.578,158.313Zm4.789,24.584a4.742,4.742,0,0,1-4.789,4.789h-4.789v-19.8h4.789a4.742,4.742,0,0,1,4.789,4.789Z" transform="translate(-174.946 -81.687)" fill="#fc3"/>
    </g>
    <g id="dollar-8" data-name="dollar" transform="translate(532 -184)" opacity="0.47">
      <path id="Path_12-8" data-name="Path 12" d="M82.054,0C37.132,0,0,36.493,0,81.415s37.132,82.054,82.054,82.054,81.415-37.132,81.415-82.054A81.47,81.47,0,0,0,82.054,0Z" fill="#fedb41"/>
      <path id="Path_13-8" data-name="Path 13" d="M338.415,81.415c0,44.922-36.494,82.054-81.415,82.054V0A81.47,81.47,0,0,1,338.415,81.415Z" transform="translate(-174.946)" fill="#fc3"/>
      <path id="Path_14-8" data-name="Path 14" d="M122.9,60C88.606,60,60,87.968,60,122.259s28.606,62.9,62.9,62.9,62.259-28.607,62.259-62.9A62.379,62.379,0,0,0,122.9,60Z" transform="translate(-40.844 -40.844)" fill="#fea832"/>
      <path id="Path_15-8" data-name="Path 15" d="M319.259,122.259c0,34.29-27.968,62.9-62.259,62.9V60A62.379,62.379,0,0,1,319.259,122.259Z" transform="translate(-174.946 -40.844)" fill="#fe9923"/>
      <path id="Path_16-8" data-name="Path 16" d="M214.162,158.313h-4.789V139.156h4.789a4.742,4.742,0,0,1,4.789,4.789c0,6.321,9.578,6.321,9.578,0a14.347,14.347,0,0,0-14.367-14.367h-4.789v-4.789a4.789,4.789,0,1,0-9.578,0v4.789h-5.428A14.347,14.347,0,0,0,180,143.946v9.578a14.348,14.348,0,0,0,14.367,14.367H199.8v19.8h-5.428a4.742,4.742,0,0,1-4.789-4.789c0-6.321-9.578-6.321-9.578,0a14.347,14.347,0,0,0,14.367,14.367H199.8v4.789a4.789,4.789,0,1,0,9.578,0v-4.789h4.789A14.347,14.347,0,0,0,228.53,182.9V172.68A14.347,14.347,0,0,0,214.162,158.313Zm-14.367,0h-5.428a4.742,4.742,0,0,1-4.789-4.789v-9.578a4.742,4.742,0,0,1,4.789-4.789H199.8ZM218.951,182.9a4.742,4.742,0,0,1-4.789,4.789h-4.789v-19.8h4.789a4.742,4.742,0,0,1,4.789,4.789Z" transform="translate(-122.531 -81.687)" fill="#fedb41"/>
      <path id="Path_17-8" data-name="Path 17" d="M266.578,158.313h-4.789V139.156h4.789a4.742,4.742,0,0,1,4.789,4.789c0,6.321,9.578,6.321,9.578,0a14.347,14.347,0,0,0-14.367-14.367h-4.789v-4.789A4.619,4.619,0,0,0,257,120v86.843a4.619,4.619,0,0,0,4.789-4.789v-4.789h4.789A14.347,14.347,0,0,0,280.946,182.9V172.68A14.348,14.348,0,0,0,266.578,158.313Zm4.789,24.584a4.742,4.742,0,0,1-4.789,4.789h-4.789v-19.8h4.789a4.742,4.742,0,0,1,4.789,4.789Z" transform="translate(-174.946 -81.687)" fill="#fc3"/>
    </g>
  </g>
</svg>
